<svg xmlns="http://www.w3.org/2000/svg" width="419" height="277" viewBox="-0.187 -1.906 3.492 2.31"><g stroke="#262c63" stroke-width="0.021" stroke-linejoin="round"><polygon points="0.113,-0.102 0.113,-0.231 2.364,-1.531 2.364,-1.402" fill="rgb(74,81,145)"/><polygon points="0.337,-0.027 0.113,-0.102 2.364,-1.402 2.588,-1.328" fill="rgb(116,126,227)"/><polygon points="0.427,0.216 0.459,0.191 2.711,-1.109 2.679,-1.084" fill="rgb(74,81,145)"/><polygon points="0.459,0.191 0.337,-0.027 2.588,-1.328 2.711,-1.109" fill="rgb(92,100,179)"/><polygon points="0.866,0.081 0.000,-0.419 2.252,-1.719 3.118,-1.219" fill="rgb(114,124,223)"/><polygon points="0.866,0.204 0.866,0.081 3.118,-1.219 3.118,-1.096" fill="rgb(74,81,145)"/><polygon points="0.000,0.000 0.427,0.216 0.459,0.191 0.337,-0.027 0.113,-0.102 0.113,-0.231 0.866,0.204 0.866,0.081 0.000,-0.419" fill="rgb(98,107,191)"/></g></svg>